<?xml version="1.0" encoding="UTF-8" standalone="no"?>
<!-- Created with Inkscape (http://www.inkscape.org/) -->

<svg
   xmlns:dc="http://purl.org/dc/elements/1.1/"
   xmlns:cc="http://creativecommons.org/ns#"
   xmlns:rdf="http://www.w3.org/1999/02/22-rdf-syntax-ns#"
   xmlns:svg="http://www.w3.org/2000/svg"
   xmlns="http://www.w3.org/2000/svg"
   xmlns:sodipodi="http://sodipodi.sourceforge.net/DTD/sodipodi-0.dtd"
   xmlns:inkscape="http://www.inkscape.org/namespaces/inkscape"
   version="1.1"
   id="svg10"
   width="800"
   height="444"
   viewBox="0 0 800 444"
   sodipodi:docname="logoum.svg"
   inkscape:version="0.92.3 (2405546, 2018-03-11)">
  <metadata
     id="metadata16">
    <rdf:RDF>
      <cc:Work
         rdf:about="">
        <dc:format>image/svg+xml</dc:format>
        <dc:type
           rdf:resource="http://purl.org/dc/dcmitype/StillImage" />
        <dc:title></dc:title>
      </cc:Work>
    </rdf:RDF>
  </metadata>
  <defs
     id="defs14" />
  <sodipodi:namedview
     pagecolor="#ffffff"
     bordercolor="#666666"
     borderopacity="1"
     objecttolerance="10"
     gridtolerance="10"
     guidetolerance="10"
     inkscape:pageopacity="0"
     inkscape:pageshadow="2"
     inkscape:window-width="1366"
     inkscape:window-height="715"
     id="namedview12"
     showgrid="false"
     inkscape:zoom="0.86955023"
     inkscape:cx="172.45446"
     inkscape:cy="224.35783"
     inkscape:window-x="-8"
     inkscape:window-y="-8"
     inkscape:window-maximized="1"
     inkscape:current-layer="svg10" />
  <g
     id="g3724"
     transform="translate(818.81411,115.00199)">
    <path
       style="fill:#a98834"
       d="m -608.21423,224.9183 c -7.12246,-0.67747 -8.05597,-1.20333 -12.55186,-7.0707 -3.85388,-5.02951 -4.89512,-5.96249 -6.67909,-5.98469 -3.12686,-0.0389 -2.64621,11.47176 0.51369,12.30167 0.94449,0.24806 -0.98274,0.46769 -4.28274,0.48807 -3.3,0.0204 -5.4375,-0.18992 -4.75,-0.46733 0.91846,-0.37061 1.25,-4.30873 1.25,-14.84773 0,-12.81944 -0.18593,-14.39193 -1.75,-14.80066 -0.9625,-0.25153 2.12681,-0.50953 6.86514,-0.57333 7.31032,-0.0984 9.01421,0.19791 11.25,1.95658 3.35227,2.6369 3.42944,6.47745 0.22503,11.19941 l -2.40983,3.55108 4.69855,5.83222 c 5.67066,7.0389 8.11942,7.99372 8.12485,3.16803 l 0.004,-3.32332 1.98156,3.25 c 1.51671,2.48759 2.67547,3.25 4.93956,3.25 2.74643,0 6.0714,-2.90359 6.0714,-5.30196 0,-0.47132 -2.7,-3.45015 -6,-6.61962 -5.3743,-5.16173 -6,-6.18012 -6,-9.76556 0,-4.61293 2.0141,-6.96568 6.77883,-7.91863 5.32724,-1.06544 8.22117,0.19453 8.22117,3.57937 v 2.93549 l -2.45455,-2.45454 c -2.7189,-2.71891 -3.7638,-2.94324 -6.61119,-1.41937 -3.30545,1.76903 -2.18487,4.74767 4.06574,10.80726 5.21332,5.05401 6,6.30385 6,9.53256 0,4.18413 -3.53867,8.625 -6.87276,8.625 -1.08001,0 -2.56297,0.14432 -3.29545,0.3207 -0.73249,0.17639 -4.03179,0.0639 -7.33179,-0.25 z m -14.32874,-16.72569 c 3.43115,-3.10515 1.65389,-10.84882 -2.74322,-11.95243 -1.76216,-0.44227 -2.93504,-0.20168 -3.52006,0.72207 -1.00681,1.58977 -1.20289,8.95326 -0.30099,11.30356 0.79133,2.06217 4.24729,2.02364 6.56427,-0.0732 z m 297.32874,16.8868 c -8.17408,-1.75389 -12.78571,-7.38218 -12.78571,-15.6044 0,-10.28723 6.11372,-16.1438 16.78571,-16.07965 7.11084,0.0428 11.72023,2.17291 14.60783,6.75079 2.59906,4.12045 2.14309,14.54902 -0.80901,18.50304 -3.30443,4.42591 -12.18595,7.63456 -17.79882,6.43022 z m 9.55539,-3.26145 c 5.40539,-2.89288 6.61055,-15.41765 2.09386,-21.76076 -3.15678,-4.43329 -9.11253,-5.99998 -13.36236,-3.51503 -5.88082,3.43862 -7.22619,13.76518 -2.7519,21.12257 2.87198,4.72259 9.36345,6.64554 14.0204,4.15322 z m 227.06741,3.02496 c -12.89326,-3.03415 -16.4749,-20.28581 -5.88803,-28.36082 9.69035,-7.39119 24.71269,-2.60506 26.82782,8.54737 2.41656,12.7417 -8.22055,22.80665 -20.93979,19.81345 z m 12.16361,-4.92385 c 3.14507,-3.7377 4.10464,-8.89267 2.6631,-14.30665 -1.37415,-5.16086 -3.37016,-7.58422 -7.78526,-9.45209 -4.47416,-1.89284 -9.6275,-0.25137 -11.68164,3.7209 -1.86081,3.59842 -1.91096,11.00542 -0.10379,15.33059 3.23609,7.74506 12.24172,10.25232 16.90759,4.70725 z m -700.36333,2.00545 c -2.87664,-2.87663 -2.92308,-3.09793 -2.92308,-13.92857 0,-8.67166 -0.33324,-11.33873 -1.57143,-12.57692 -1.42857,-1.42857 -1.09221,-1.57143 3.7,-1.57143 4.1,0 5.00476,0.26667 4.07143,1.2 -1.50473,1.50473 -1.62696,18.54681 -0.16069,22.40341 2.18355,5.74315 8.2726,7.17559 12.50614,2.94204 2.32079,-2.32078 2.45455,-3.07972 2.45455,-13.92667 0,-10.08495 -0.2116,-11.52743 -1.75,-11.92945 -0.9625,-0.25153 0.4775,-0.50953 3.2,-0.57333 3.85,-0.0902 4.68333,0.15067 3.75,1.084 -0.76188,0.76188 -1.2,4.60714 -1.2,10.53212 0,15.08858 -2.88471,19.26788 -13.29943,19.26788 -5.13734,0 -6.21245,-0.35803 -8.77749,-2.92308 z m 29.72568,2.15777 c 1.21063,-0.77425 2.25025,-11.65744 2.31353,-24.21906 l 0.0377,-7.48437 12.1163,11.98437 12.11631,11.98437 -0.63458,-10.45228 c -0.39834,-6.56107 -1.09313,-10.74355 -1.86631,-11.23469 -0.70214,-0.44601 0.64822,-0.78899 3.14072,-0.79772 3.3923,-0.0119 4.13923,0.2657 3.33207,1.23827 -0.57221,0.68948 -1.18981,7.40328 -1.37245,14.91957 -0.18263,7.51629 -0.71053,14.03967 -1.1731,14.49641 -0.46257,0.45674 -5.52632,-4.00706 -11.25276,-9.91956 -5.72645,-5.9125 -10.63548,-10.75 -10.90896,-10.75 -0.27348,0 -0.49724,4.01786 -0.49724,8.92857 0,6.78355 0.37752,9.3061 1.57143,10.5 1.42857,1.42857 1.13312,1.57004 -3.25,1.55612 -2.65179,-0.008 -4.30449,-0.34592 -3.67267,-0.75 z m 39.22827,-0.13753 c 1.82277,-1.15455 2.86065,-22.54228 1.30979,-26.99109 l -1.08278,-3.10607 4.69798,0.079 c 2.58389,0.0434 4.13548,0.30592 3.44798,0.58333 -0.91566,0.36948 -1.25,4.21345 -1.25,14.37136 0,12.15168 0.21647,13.99306 1.75,14.88626 1.32959,0.77442 0.30859,1.02291 -4.25,1.03438 -3.79464,0.01 -5.49386,-0.3055 -4.62297,-0.85712 z m 25.16356,-3.34716 c -1.08331,-2.3375 -3.76484,-8.74085 -5.95896,-14.22966 -2.19412,-5.48881 -4.77109,-10.55131 -5.7266,-11.25 -1.48718,-1.08745 -0.99445,-1.27034 3.42246,-1.27034 3.90692,0 5.03464,0.32601 4.6445,1.34269 -0.6263,1.63211 6.67021,20.71836 7.68151,20.09334 0.39422,-0.24364 2.42056,-4.74775 4.50298,-10.00914 3.1777,-8.0287 3.55376,-9.71322 2.33987,-10.48121 -1.00324,-0.63471 -0.0968,-0.91975 2.95864,-0.93037 4.09685,-0.0142 4.30074,0.1071 2.91471,1.73469 -0.81965,0.9625 -4.15006,7.9375 -7.40091,15.5 -3.25085,7.5625 -6.24767,13.75 -6.65959,13.75 -0.41193,0 -1.6353,-1.9125 -2.71861,-4.25 z m 21.7187,3.09071 c 0.86277,-0.86277 1.24071,-5.27701 1.24071,-14.49102 0,-11.56438 -0.22266,-13.38 -1.75,-14.26959 -1.27661,-0.74356 0.88747,-1.02751 8,-1.04969 9.25798,-0.0289 9.75,0.0759 9.75,2.07658 0,1.62927 -0.39678,1.93482 -1.75,1.34762 -0.9625,-0.41766 -3.2125,-0.96504 -5,-1.2164 l -3.25,-0.45702 v 5.7101 5.7101 l 4.5,-0.3579 c 4.31463,-0.34316 4.5,-0.24624 4.5,2.35279 0,2.69201 -0.0195,2.69949 -2.83158,1.08559 -4.65274,-2.6703 -6.16842,-1.27765 -6.16842,5.66769 0,5.54852 0.18924,6.05983 2.4531,6.62803 1.41304,0.35465 3.77192,-0.0422 5.56367,-0.93607 3.02464,-1.50889 3.1019,-1.49084 2.7969,0.65336 -0.29479,2.07236 -0.88506,2.22262 -9.80438,2.49583 -7.55467,0.23141 -9.23762,0.0376 -8.25,-0.95 z m 78.04071,-0.0407 c 0.81258,-0.81258 1.2,-5.47785 1.2,-14.45031 0,-11.56438 -0.22266,-13.38 -1.75,-14.26959 -1.35011,-0.78637 -0.5423,-1.02623 3.53518,-1.04969 4.91936,-0.0283 5.21354,0.10347 4.25,1.90385 -1.17005,2.18627 -1.40066,24.97264 -0.26987,26.6658 0.40408,0.60503 1.40969,1.357 2.23469,1.67105 0.825,0.31405 -1.1775,0.60652 -4.45,0.64994 -4.62778,0.0614 -5.68333,-0.18772 -4.75,-1.12105 z m 17.2,0.22309 c 1.17677,-0.74237 1.57036,-3.72396 1.82653,-13.83672 0.27686,-10.92982 0.0759,-13.14111 -1.32143,-14.53841 -1.53061,-1.53061 -0.93224,-1.64796 8.40323,-1.64796 12.70142,0 17.35628,1.63818 20.13573,7.08637 4.06258,7.96332 1.57229,17.50764 -5.64816,21.64718 -3.3524,1.92196 -5.36071,2.23371 -14.3959,2.23469 -6.99231,7.5e-4 -9.9989,-0.31499 -9,-0.94515 z m 20.02002,-2.53344 c 3.79217,-1.96101 5.07063,-4.49205 5.20294,-10.30055 0.2044,-8.97369 -4.70657,-14.5153 -12.96113,-14.62552 l -4.76183,-0.0636 -0.28267,11.85817 c -0.18803,7.8878 0.10409,12.32419 0.87244,13.25 1.52866,1.84192 8.26865,1.77496 11.93025,-0.11852 z m 12.74454,1.76035 c 1.09238,-0.9625 4.3697,-7.825 7.28295,-15.25 2.91325,-7.425 5.65891,-13.91707 6.10148,-14.42683 0.81813,-0.94234 4.13073,5.82811 8.41464,17.19827 4.62899,12.28603 5.3623,13.36884 8.82545,13.03155 l 3.11092,-0.30299 0.2807,-13.49097 c 0.24579,-11.81295 0.0665,-13.64756 -1.44113,-14.75 -1.42337,-1.04079 0.13824,-1.25903 9.00914,-1.25903 8.65144,0 11.46879,0.37641 14.53837,1.94239 7.48007,3.81605 9.97439,12.23213 5.92725,19.99907 -4.18135,8.02447 -5.55331,8.51376 -24.88398,8.87439 -16.62758,0.3102 -16.93035,0.27833 -16.93035,-1.78212 0,-1.15388 -0.65204,-3.65851 -1.44897,-5.56585 -1.3541,-3.24081 -1.74858,-3.46788 -6.02475,-3.46788 -4.06053,0 -4.69867,0.30966 -5.6671,2.75 -0.60023,1.5125 -1.15159,3.98647 -1.22525,5.49772 -0.1218,2.49894 -0.48349,2.74793 -3.99471,2.75 -3.76684,0.002 -3.81246,-0.0403 -1.87466,-1.74772 z m 54.83544,-3.65 c 3.02213,-3.02213 3.4,-3.99657 3.4,-8.76787 0,-9.36332 -5.59913,-14.80698 -15.25,-14.82655 l -2.75,-0.006 v 12.83333 c 0,7.05834 0.3,13.13334 0.66667,13.5 0.36666,0.36667 2.88666,0.66667 5.6,0.66667 4.27712,0 5.38558,-0.45225 8.33333,-3.4 z m -38.6,-8.47788 c 0,-1.33627 -2.95606,-8.12212 -3.53817,-8.12212 -0.50751,0 -1.54984,2.42972 -2.89569,6.75 -0.63669,2.04384 -0.37405,2.25 2.86647,2.25 1.96207,0 3.56739,-0.39504 3.56739,-0.87788 z m 65.75,13.2156 c 0.9184,-0.37058 1.25,-4.30673 1.25,-14.83772 0,-10.50513 -0.33385,-14.481 -1.25,-14.88621 -0.6875,-0.30408 4.0062,-0.45408 10.43045,-0.33333 10.06886,0.18925 12.06946,0.50769 14.5,2.30799 9.00878,6.67285 7.84731,21.55719 -2.05628,26.35144 -3.46863,1.67914 -6.09275,2.04551 -14.18989,1.98116 -5.46386,-0.0434 -9.37178,-0.30592 -8.68428,-0.58333 z m 18.90203,-2.36626 c 8.28611,-2.88856 8.60978,-17.89721 0.50834,-23.57169 -1.17008,-0.81955 -4.38483,-1.75745 -7.14389,-2.08422 l -5.01648,-0.59413 v 13.05596 c 0,9.50909 0.33958,13.19298 1.25,13.56034 2.18156,0.88028 7.34804,0.69836 10.40203,-0.36626 z m 18.14797,1.82854 c 1.72518,-1.72518 1.67933,-28.43992 -0.05,-29.13772 -0.6875,-0.27741 2.4625,-0.53991 7,-0.58333 4.5375,-0.0434 8.5875,-0.19145 9,-0.32895 0.4125,-0.1375 0.8972,1.03732 1.07711,2.61071 0.32001,2.79873 0.27728,2.82581 -1.97251,1.25 -1.26479,-0.88589 -3.54948,-1.61071 -5.07711,-1.61071 -2.69999,0 -2.77749,0.15347 -2.77749,5.5 v 5.5 h 4.86133 c 4.69218,0 4.84409,0.0902 4.36584,2.59195 -0.29296,1.53256 -0.78257,2.12743 -1.19789,1.45542 -0.38633,-0.62509 -2.23846,-1.22897 -4.11585,-1.34195 l -3.41343,-0.20542 -0.29439,6.12176 c -0.272,5.65616 -0.11989,6.1685 2,6.73635 3.64212,0.97559 4.66519,0.77109 6.79439,-1.35811 l 2,-2 v 3 3 h -9.7 c -7.54444,0 -9.43333,-0.26667 -8.5,-1.2 z m 33.99609,0.34719 c 0.76596,-0.4859 2.11318,-6.30818 3.29377,-14.23469 2.91976,-19.60345 2.70108,-19.47172 9.39506,-5.65939 3.1328,6.46421 6.03781,11.54186 6.45558,11.28366 0.41778,-0.2582 3.16059,-5.44108 6.09514,-11.51752 2.93455,-6.07643 5.64971,-10.70408 6.03368,-10.28366 0.38397,0.42043 1.45494,6.16441 2.37994,12.76441 2.19659,15.67302 2.42895,16.50038 4.92916,17.55084 1.57246,0.66067 0.83559,0.83416 -2.84694,0.67027 l -4.96852,-0.22111 -1.14223,-9.27742 c -0.62823,-5.10258 -1.36339,-9.49857 -1.63369,-9.76887 -0.2703,-0.27031 -2.18963,3.22953 -4.26517,7.77741 -6.21424,13.61653 -5.63122,13.50427 -11.31665,2.179 -5.44056,-10.83748 -5.5898,-10.81651 -6.77251,0.95148 -0.53454,5.31869 -0.37965,7.05792 0.68884,7.73468 0.90359,0.57233 -0.17175,0.87309 -3.12155,0.87309 -2.73546,0 -3.99178,-0.32239 -3.20391,-0.82218 z m 80.20391,-0.12351 c 1.18714,-0.74844 1.60429,-4.11295 2,-16.13083 l 0.5,-15.18513 11.73507,11.89614 11.73507,11.89614 0.0149,-9.67857 c 0.0115,-7.48007 -0.34202,-10.03553 -1.5565,-11.25 -1.42854,-1.42857 -1.18309,-1.57143 2.70003,-1.57143 3.32222,0 4.00476,0.26667 3.07143,1.2 -0.82145,0.82145 -1.2,5.71111 -1.2,15.5 0,11.44117 -0.27388,14.3 -1.36996,14.3 -0.75348,0 -6.15348,-4.99343 -12,-11.09651 l -10.63004,-11.09652 v 9.52509 c 0,7.32583 0.36283,9.88791 1.57143,11.09651 1.42857,1.42857 1.13312,1.57004 -3.25,1.55612 -3.4248,-0.0109 -4.38692,-0.28926 -3.32143,-0.96101 z m 44.90826,-0.41314 c 0.7737,-0.93225 1.06078,-5.62128 0.87244,-14.25 l -0.2807,-12.86054 -4.41352,0.20556 c -2.42743,0.11306 -4.78304,0.78806 -5.23468,1.5 -0.54409,0.85766 -0.82634,0.36651 -0.83649,-1.45556 l -0.0153,-2.75 h 14 c 13.19144,0 14,0.1121 14,1.94098 0,2.17003 -1.63184,3.66351 -2.18609,2.00074 -0.1963,-0.5889 -2.25974,-1.32596 -4.58541,-1.6379 -3.93045,-0.52718 -4.23465,-0.39928 -4.31568,1.81451 -0.68124,18.61058 -0.43549,23.359 1.29864,25.09313 1.71805,1.71805 1.56696,1.78854 -3.8339,1.78854 -4.68555,0 -5.43029,-0.23153 -4.4693,-1.38946 z m 22.89174,0.18946 c 0.81258,-0.81258 1.2,-5.47785 1.2,-14.45031 0,-11.56438 -0.22266,-13.38 -1.75,-14.26959 -1.27661,-0.74356 0.88747,-1.02751 8,-1.04969 8.79894,-0.0274 9.75,0.14842 9.75,1.80292 0,2.66121 -1.02906,3.28046 -2.69048,1.61905 -0.79881,-0.79881 -2.71398,-1.45238 -4.25595,-1.45238 -2.33472,0 -2.90718,0.51803 -3.42311,3.09768 -0.34074,1.70372 -0.33801,4.21935 0.006,5.59027 0.56605,2.25532 1.04148,2.45951 4.99453,2.14511 4.0246,-0.32008 4.36894,-0.16113 4.36894,2.01672 0,1.75195 -0.41251,2.2059 -1.5929,1.75294 -7.19972,-2.76279 -8.87989,-1.54237 -7.96439,5.78507 0.62004,4.96261 1.00359,5.68612 3.32292,6.26823 1.65836,0.41623 3.65328,0.0662 5.42817,-0.95246 2.81764,-1.61711 3.32572,-1.22097 2.19921,1.71465 -0.49191,1.28191 -2.33085,1.58179 -9.7,1.58179 -7.07234,0 -8.82634,-0.26667 -7.89301,-1.2 z m 33.352,-0.55 c -0.50511,-0.9625 -3.27268,-7.4941 -6.15018,-14.51466 -2.87749,-7.02057 -5.96755,-13.19438 -6.86681,-13.71959 -1.18797,-0.69384 -0.18344,-0.96325 3.67401,-0.98534 2.96064,-0.017 5.05906,0.37403 4.74393,0.88391 -0.605,0.97892 6.50112,21.08568 7.45209,21.08568 1.06212,0 8.13847,-19.18364 7.59692,-20.59488 -0.40141,-1.04607 0.37844,-1.40512 3.05187,-1.40512 3.15191,0 3.4315,0.19226 2.28629,1.57215 -0.71762,0.86468 -2.29977,3.90218 -3.51589,6.75 -8.23318,19.27986 -9.8123,22.67785 -10.53892,22.67785 -0.44822,0 -1.22821,-0.7875 -1.73331,-1.75 z m 20.648,0.55 c 1.72518,-1.72518 1.67933,-28.43992 -0.05,-29.13772 -0.6875,-0.27741 1.225,-0.50439 4.25,-0.50439 3.025,0 4.9375,0.22698 4.25,0.50439 -0.91566,0.36948 -1.25,4.21345 -1.25,14.37136 0,12.15168 0.21647,13.99306 1.75,14.88626 1.33224,0.77596 0.32961,1.02654 -4.2,1.04969 -4.62778,0.0237 -5.68333,-0.23626 -4.75,-1.16959 z m 17.95,0.0801 c 0.8727,-0.8937 1.25,-5.2795 1.25,-14.53038 0,-11.56438 -0.22266,-13.38 -1.75,-14.26959 -1.26894,-0.73909 1.13636,-1.0216 8.75,-1.02773 8.19294,-0.007 11.41924,0.4089 14.68368,1.89101 9.88551,4.48817 10.44725,19.39854 0.99657,26.45209 -2.39257,1.7857 -4.51351,2.15453 -14,2.4346 -9.07229,0.26783 -10.94457,0.0887 -9.93025,-0.95 z m 20.03321,-2.44077 c 5.01234,-3.51078 6.64004,-11.41713 3.63475,-17.65537 -2.36595,-4.91113 -5.8059,-7.00281 -11.76467,-7.15356 l -5.15329,-0.1304 -0.28279,11.25447 c -0.35091,13.96522 0.20297,15.24553 6.59547,15.24553 2.6789,0 5.71182,-0.67907 6.97053,-1.5607 z m 16.96679,2.9199 c 0.9174,-0.38594 1.25,-4.33966 1.25,-14.8592 0,-10.53099 -0.3316,-14.46714 -1.25,-14.83772 -0.6875,-0.27741 2.9125,-0.53991 8,-0.58333 8.5167,-0.0727 9.25,0.0749 9.25,1.86203 0,2.46631 -1.608,3.52293 -2.36383,1.55328 -0.35892,-0.93537 -1.8943,-1.49429 -4.10479,-1.49429 h -3.53138 v 5.5 5.5 h 4.5 c 4.18936,0 4.5,0.18103 4.5,2.62244 0,1.95488 -0.3182,2.37254 -1.25,1.64072 -0.6875,-0.53995 -2.7125,-1.2588 -4.5,-1.59745 l -3.25,-0.61571 v 6.40761 c 0,5.4345 0.29082,6.49992 1.91496,7.0154 2.66505,0.84585 6.91351,-0.37588 8.11844,-2.33462 0.79725,-1.29602 0.9513,-1.01149 0.73723,1.36161 l -0.27063,3 -9.5,0.19254 c -5.225,0.10589 -8.9375,-0.0441 -8.25,-0.33334 z m -575.25,-66.27557 c -38.41523,-8.04664 -69.4224,-36.17933 -79.96199,-72.54925 -4.05761,-14.00198 -4.66478,-25.69068 -4.33917,-83.53441 l 0.30116,-53.5 105.29805,-0.254592 105.29804,-0.254593 -0.32091,63.754595 -0.32092,63.75459 -2.7799,9 c -7.51472,24.3291 -21.68362,43.68249 -42.01319,57.38607 -18.33994,12.36244 -33.2999,16.98398 -57.16117,17.65865 -12.06692,0.34119 -16.75985,0.0555 -24,-1.46106 z m 240.48392,0.4612 c -31.36059,-5.13761 -51.84483,-23.45731 -59.31496,-53.04722 -3.57119,-14.14585 -3.95382,-21.02829 -4.56124,-82.04367 -0.56596,-56.85105 -0.73332,-61.23759 -2.4355,-63.833528 -2.44856,-3.734229 -7.62276,-5.751513 -16.67222,-6.500061 -6.62654,-0.548131 -7.5,-0.853304 -7.5,-2.620381 0,-1.968627 0.66667,-2 42.5,-2 41.83333,0 42.5,0.03137 42.5,2 0,1.73825 -0.89099,2.088076 -6.80798,2.672981 -7.72229,0.763363 -10.87587,2.428457 -13.42121,7.086437 -1.6418,3.004492 -1.77081,7.866782 -1.77081,66.740582 0,61.4321 0.0704,63.81633 2.16277,73.21371 5.17405,23.23837 18.1686,38.19406 37.70562,43.39616 6.19494,1.64952 20.54971,1.80072 27.83239,0.29316 14.66491,-3.03574 27.36134,-12.68818 33.45185,-25.43172 6.78456,-14.19572 8.29501,-30.43082 8.23106,-88.47131 -0.0527,-47.86598 -0.91465,-66.87211 -3.19008,-70.344853 -2.5325,-3.865091 -6.87666,-5.675454 -15.49406,-6.456918 -6.80014,-0.616667 -7.69955,-0.931856 -7.69955,-2.698229 0,-1.96347 0.66667,-2 36.5,-2 35.83333,0 36.5,0.03653 36.5,2 0,1.719739 -0.90374,2.099662 -6.44925,2.71121 -8.48361,0.935556 -11.78191,2.407427 -13.84791,6.179644 -1.52779,2.789536 -1.76767,9.174126 -2.33349,62.109146 -0.66921,62.60738 -1.23674,70.83557 -5.9317,86 -6.25489,20.20286 -18.17004,34.16465 -37.43765,43.86821 -11.98023,6.03348 -19.89949,7.73837 -38,8.18074 -10.72161,0.26204 -18.80945,-0.0692 -24.51608,-1.00409 z m 104.92977,-4.14886 c -1.73369,-2.08897 -0.66332,-2.66328 6.59155,-3.53668 3.56276,-0.42892 7.42415,-1.28635 8.58087,-1.9054 4.56294,-2.44201 6.57752,-10.00515 11.8411,-44.45392 8.78982,-57.52697 19.07329,-125.43214 21.52741,-142.15262 1.30393,-8.883937 2.8759,-17.096437 3.49326,-18.249997 0.66567,-1.243803 2.10845,-2.097383 3.54515,-2.097383 3.18128,0 3.89622,1.274257 23.5647,42 8.89835,18.425 20.97874,43.4 26.84531,55.5 5.86657,12.1 15.37584,31.76436 21.13172,43.69857 5.75588,11.93422 10.76266,21.38422 11.12617,21 0.36351,-0.38421 4.80914,-9.47357 9.87916,-20.19857 5.07003,-10.725 11.63511,-24.5625 14.58907,-30.75 2.95396,-6.1875 7.78772,-16.3125 10.74168,-22.5 9.5538,-20.01184 23.80586,-50.06593 27.14871,-57.25 7.3072,-15.703748 14.64573,-29.985368 15.77744,-30.704709 2.13733,-1.358541 4.60617,-0.844752 5.69225,1.184608 0.58279,1.088944 5.341,31.126441 10.57381,66.750001 5.23281,35.62355 11.06621,75.3451 12.96311,88.2701 1.8969,12.925 3.93717,26.2 4.53392,29.5 1.39563,7.71771 5.1079,15.9093 8.09581,17.86442 3.4216,2.2389 13.47618,4.63558 19.44722,4.63558 3.56651,0 5.35368,0.445 5.73046,1.42689 1.39332,3.63093 -1.46998,3.91281 -32.12669,3.1628 -16.33878,-0.39972 -31.50204,-1.04027 -33.69611,-1.42344 -4.65919,-0.81368 -5.87207,-3.52446 -2.60183,-5.81503 1.61196,-1.12905 2.09422,-2.53995 2.10484,-6.15792 0.019,-6.4695 -16.03678,-124.47428 -17.09003,-125.60614 -0.49192,-0.52865 -1.24526,0.10266 -1.78992,1.5 -0.51727,1.32706 -4.63742,10.06284 -9.1559,19.41284 -4.51848,9.35 -10.3586,21.5 -12.97804,27 -2.61944,5.5 -8.23907,17.2 -12.48807,26 -4.249,8.8 -9.42146,19.6 -11.49436,24 -10.51161,22.31228 -19.13761,39.35482 -20.48539,40.47338 -2.16161,1.79398 -4.08004,0.70293 -7.05757,-4.01378 -4.03792,-6.39647 -32.82329,-63.18276 -41.4685,-81.80692 -19.60467,-42.23379 -23.4238,-50.15268 -24.18772,-50.15268 -0.45005,0 -0.81828,0.64516 -0.81828,1.4337 0,0.78853 -2.95839,23.85103 -6.57419,51.25 -8.28433,62.77494 -8.93145,69.01615 -7.52908,72.61467 1.3954,3.58061 6.08074,5.55351 15.39537,6.48264 6.30157,0.62858 7.2079,0.97047 7.2079,2.71899 0,1.95575 -0.72339,2.00377 -32.69381,2.17017 -27.42953,0.14276 -32.88682,-0.0624 -33.8925,-1.27417 z"
       id="path3730"
       inkscape:connector-curvature="0" />
    <path
       style="fill:#455c6a"
       d="m -698.21423,157.93126 c -38.41523,-8.04664 -69.4224,-36.17933 -79.96199,-72.54925 -4.05761,-14.00198 -4.66478,-25.69068 -4.33917,-83.53441 l 0.30116,-53.5 105.29805,-0.254592 105.29804,-0.254593 -0.32091,63.754595 -0.32092,63.75459 -2.7799,9 c -7.51472,24.3291 -21.68362,43.68249 -42.01319,57.38607 -18.33994,12.36244 -33.2999,16.98398 -57.16117,17.65865 -12.06692,0.34119 -16.75985,0.0555 -24,-1.46106 z m 36.58398,-28.17944 c 12.40898,-3.56217 24.93996,-13.7054 31.38449,-25.40422 5.53137,-10.04115 7.01207,-15.80333 6.93815,-27 -0.0789,-11.94294 -2.68683,-21.03258 -8.46409,-29.5 -4.66103,-6.83142 -12.48548,-14.54854 -13.34342,-13.16037 -0.56117,0.90799 -1.59656,5.11655 -3.24487,13.18941 -0.37023,1.81324 0.49782,4.03614 3.06694,7.85383 5.06973,7.5336 6.91184,14.62522 6.37078,24.52577 -1.78333,32.6317 -41.36595,48.3161 -65.38064,25.90672 -4.96947,-4.63728 -8.80675,-10.56544 -10.50241,-16.22506 -1.23786,-4.13161 -4.02522,-7.0903 -6.67972,-7.0903 -0.72919,0 -3.16527,-0.88873 -5.4135,-1.97496 -2.24824,-1.08623 -4.50825,-1.71505 -5.02225,-1.39738 -2.18873,1.35271 1.75522,15.85196 6.76553,24.87234 7.34631,13.226 21.87105,24.02413 35.53467,26.41753 4.0735,0.71354 7.85636,1.4285 8.40636,1.5888 2.24143,0.65327 13.41591,-0.83147 19.58398,-2.60211 z m -28.9633,-49.49986 c 7.77727,-1.7689 9.47846,-3.59847 5.76078,-6.1955 -1.3098,-0.91498 -3.70706,-3.01692 -5.32724,-4.67099 -2.86181,-2.92166 -3.223,-3.00954 -12.67056,-3.0827 -9.00749,-0.0697 -10.22852,-0.32837 -16.55422,-3.50633 -8.45092,-4.24565 -15.90487,-11.5656 -19.80485,-19.44884 -2.68408,-5.42546 -2.97101,-6.95757 -2.99645,-16 -0.0257,-9.14882 0.23571,-10.55327 3.07168,-16.5 3.90471,-8.18775 10.79007,-15.08202 19.19481,-19.21966 5.90984,-2.9094 7.43655,-3.22131 16.23802,-3.31736 l 9.71486,-0.10602 6.153,-5.35172 c 3.38416,-2.94345 5.80347,-5.70056 5.37625,-6.12691 -1.88619,-1.88237 -13.38406,-3.87681 -22.23686,-3.85724 -7.46594,0.0165 -11.01302,0.54099 -16.31604,2.41253 -20.63896,7.28391 -34.48942,24.81773 -37.30914,47.23106 -1.2919,10.26902 2.72882,25.27247 9.37096,34.96803 8.37186,12.22045 20.33491,20.37978 34.71432,23.67672 4.61254,1.05758 17.09436,0.57931 23.62068,-0.90507 z m 47.29753,0.98865 c 1.18808,-0.45591 1.58179,-2.03517 1.58179,-6.34501 0,-7.11458 -1.82792,-9.27474 -7.12137,-8.41573 -10.35004,1.67958 -27.12509,-7.1078 -33.98938,-17.80486 -1.70376,-2.65508 -3.71379,-4.82741 -4.46674,-4.82741 -2.57063,0 -10.41145,4.38981 -10.96695,6.14001 -0.88731,2.79569 2.96197,9.1028 9.75242,15.97948 6.93255,7.02059 18.55236,13.48905 26.71244,14.87017 5.75205,0.97355 16.40646,1.20587 18.49779,0.40335 z m 28.66404,-12.45158 c 4.56015,-3.24711 11.92045,-13.50377 15.2866,-21.30203 2.89031,-6.69589 3.08329,-7.91591 3.10645,-19.6394 0.0227,-11.4855 -0.21333,-13.1087 -2.90809,-20 -5.56932,-14.24238 -15.05587,-24.08222 -30.06721,-31.18696 -6.88714,-3.25962 -7.22573,-3.31304 -21,-3.31304 -13.82291,0 -14.1003,0.0443 -21.92971,3.5 -17.42337,7.6903 -32.57029,28.94793 -32.57029,45.7101 0,3.54473 0.89992,3.97673 4.31574,2.07177 1.20134,-0.66998 4.17653,-1.92575 6.61153,-2.79062 3.86706,-1.37351 4.62628,-2.1441 6,-6.08985 3.83047,-11.00227 11.31688,-19.46521 21.61498,-24.43443 5.33477,-2.57423 7.00341,-2.87592 15.95775,-2.88517 9.19373,-0.01 10.52407,0.24423 16.5,3.14703 15.21395,7.39015 24.48702,23.96885 22.50183,40.2295 -0.74963,6.14018 -5.33318,16.67763 -8.95365,20.58419 -1.4933,1.61129 -2.17625,3.33068 -1.8838,4.74258 0.71457,3.44976 2.49076,11.07912 2.90195,12.4649 0.50495,1.70176 1.1536,1.58562 4.51592,-0.80857 z m -95.03107,-13.89889 c 4.51365,-6.43465 11.78109,-12.03324 18.94882,-14.59753 2.475,-0.88544 8.3149,-1.73363 12.97755,-1.88486 l 8.47756,-0.27497 0.81342,-3.89259 c 0.44738,-2.14092 0.68248,-5.46759 0.52245,-7.39259 l -0.29098,-3.5 -8.93367,-0.29161 c -13.52715,-0.44155 -26.24914,4.21092 -37.07394,13.55805 -5.42257,4.68236 -13.37708,16.68051 -11.9843,18.07649 1.81925,1.82343 9.20325,6.03674 10.67804,6.09288 0.96659,0.0368 3.46945,-2.47811 5.86505,-5.89327 z m 48.90616,4.98029 c 2.30213,-1.23206 6.3013,-8.01026 9.22775,-15.64013 3.18718,-8.30964 3.22971,-25.13646 0.0859,-33.98857 -2.68983,-7.57384 -7.2083,-15.15371 -9.49515,-15.92842 -1.84786,-0.62598 -6.75717,1.4118 -10.69721,4.44026 l -2.42137,1.86115 3.21041,4.84682 c 4.81283,7.26606 6.43407,14.03172 5.93808,24.78054 -0.39694,8.60233 -0.65174,9.484 -4.6109,15.95434 -2.30491,3.76685 -3.96608,7.21233 -3.69149,7.65663 0.5145,0.83248 9.53031,6.99455 10.23382,6.99455 0.21686,0 1.21593,-0.43973 2.22015,-0.97717 z m 203.02658,98.52203 c -31.36059,-5.13761 -51.84483,-23.45731 -59.31496,-53.04722 -3.57119,-14.14585 -3.95382,-21.02829 -4.56124,-82.04367 -0.56596,-56.85105 -0.73332,-61.23759 -2.4355,-63.833528 -2.44856,-3.734229 -7.62276,-5.751513 -16.67222,-6.500061 -6.62654,-0.548131 -7.5,-0.853304 -7.5,-2.620381 0,-1.968627 0.66667,-2 42.5,-2 41.83333,0 42.5,0.03137 42.5,2 0,1.73825 -0.89099,2.088076 -6.80798,2.672981 -7.72229,0.763363 -10.87587,2.428457 -13.42121,7.086437 -1.6418,3.004492 -1.77081,7.866782 -1.77081,66.740582 0,61.4321 0.0704,63.81633 2.16277,73.21371 5.17405,23.23837 18.1686,38.19406 37.70562,43.39616 6.19494,1.64952 20.54971,1.80072 27.83239,0.29316 14.66491,-3.03574 27.36134,-12.68818 33.45185,-25.43172 6.78456,-14.19572 8.29501,-30.43082 8.23106,-88.47131 -0.0527,-47.86598 -0.91465,-66.87211 -3.19008,-70.344853 -2.5325,-3.865091 -6.87666,-5.675454 -15.49406,-6.456918 -6.80014,-0.616667 -7.69955,-0.931856 -7.69955,-2.698229 0,-1.96347 0.66667,-2 36.5,-2 35.83333,0 36.5,0.03653 36.5,2 0,1.719739 -0.90374,2.099662 -6.44925,2.71121 -8.48361,0.935556 -11.78191,2.407427 -13.84791,6.179644 -1.52779,2.789536 -1.76767,9.174126 -2.33349,62.109146 -0.66921,62.60738 -1.23674,70.83557 -5.9317,86 -6.25489,20.20286 -18.17004,34.16465 -37.43765,43.86821 -11.98023,6.03348 -19.89949,7.73837 -38,8.18074 -10.72161,0.26204 -18.80945,-0.0692 -24.51608,-1.00409 z m 104.92977,-4.14886 c -1.73369,-2.08897 -0.66332,-2.66328 6.59155,-3.53668 3.56276,-0.42892 7.42415,-1.28635 8.58087,-1.9054 4.56294,-2.44201 6.57752,-10.00515 11.8411,-44.45392 8.78982,-57.52697 19.07329,-125.43214 21.52741,-142.15262 1.30393,-8.883937 2.8759,-17.096437 3.49326,-18.249997 0.66567,-1.243803 2.10845,-2.097383 3.54515,-2.097383 3.18128,0 3.89622,1.274257 23.5647,42 8.89835,18.425 20.97874,43.4 26.84531,55.5 5.86657,12.1 15.37584,31.76436 21.13172,43.69857 5.75588,11.93422 10.76266,21.38422 11.12617,21 0.36351,-0.38421 4.80914,-9.47357 9.87916,-20.19857 5.07003,-10.725 11.63511,-24.5625 14.58907,-30.75 2.95396,-6.1875 7.78772,-16.3125 10.74168,-22.5 9.5538,-20.01184 23.80586,-50.06593 27.14871,-57.25 7.3072,-15.703748 14.64573,-29.985368 15.77744,-30.704709 2.13733,-1.358541 4.60617,-0.844752 5.69225,1.184608 0.58279,1.088944 5.341,31.126441 10.57381,66.750001 5.23281,35.62355 11.06621,75.3451 12.96311,88.2701 1.8969,12.925 3.93717,26.2 4.53392,29.5 1.39563,7.71771 5.1079,15.9093 8.09581,17.86442 3.4216,2.2389 13.47618,4.63558 19.44722,4.63558 3.56651,0 5.35368,0.445 5.73046,1.42689 1.39332,3.63093 -1.46998,3.91281 -32.12669,3.1628 -16.33878,-0.39972 -31.50204,-1.04027 -33.69611,-1.42344 -4.65919,-0.81368 -5.87207,-3.52446 -2.60183,-5.81503 1.61196,-1.12905 2.09422,-2.53995 2.10484,-6.15792 0.019,-6.4695 -16.03678,-124.47428 -17.09003,-125.60614 -0.49192,-0.52865 -1.24526,0.10266 -1.78992,1.5 -0.51727,1.32706 -4.63742,10.06284 -9.1559,19.41284 -4.51848,9.35 -10.3586,21.5 -12.97804,27 -2.61944,5.5 -8.23907,17.2 -12.48807,26 -4.249,8.8 -9.42146,19.6 -11.49436,24 -10.51161,22.31228 -19.13761,39.35482 -20.48539,40.47338 -2.16161,1.79398 -4.08004,0.70293 -7.05757,-4.01378 -4.03792,-6.39647 -32.82329,-63.18276 -41.4685,-81.80692 -19.60467,-42.23379 -23.4238,-50.15268 -24.18772,-50.15268 -0.45005,0 -0.81828,0.64516 -0.81828,1.4337 0,0.78853 -2.95839,23.85103 -6.57419,51.25 -8.28433,62.77494 -8.93145,69.01615 -7.52908,72.61467 1.3954,3.58061 6.08074,5.55351 15.39537,6.48264 6.30157,0.62858 7.2079,0.97047 7.2079,2.71899 0,1.95575 -0.72339,2.00377 -32.69381,2.17017 -27.42953,0.14276 -32.88682,-0.0624 -33.8925,-1.27417 z"
       id="path3728"
       inkscape:connector-curvature="0" />
    <path
       style="fill:#1b5499"
       d="m -697.71423,157.38814 c -11.13609,-2.54009 -22.89654,-6.99979 -32.56013,-12.3472 -5.06051,-2.80026 -15.43987,-10.42232 -15.43987,-11.33823 0,-0.47031 -0.65264,-0.85511 -1.45031,-0.85511 -0.79767,0 -1.81017,-0.62209 -2.25,-1.38243 -0.43983,-0.76034 -3.17567,-4.02284 -6.07964,-7.25 -10.84958,-12.05706 -17.53568,-24.34828 -23.04684,-42.36757 l -2.59971,-8.5 -0.33042,-60.84491 c -0.24598,-45.29513 -0.0324,-61.204005 0.83569,-62.250002 0.98771,-1.190112 16.89714,-1.405088 103.98466,-1.405088 67.86689,0 103.02986,0.34193 103.4402,1.005868 0.34191,0.553228 0.59053,26.990732 0.55249,58.750002 -0.0648,54.10528 -0.70713,70.17588 -3.02736,75.74413 -0.45836,1.1 -1.87117,4.925 -3.13958,8.5 -6.02629,16.98513 -22.76066,38.10443 -37.88918,47.81732 -3.025,1.94213 -7.09919,4.57774 -9.05375,5.85691 -1.95456,1.27917 -4.22706,2.32577 -5.05,2.32577 -0.82294,0 -2.00473,0.50848 -2.6262,1.12995 -1.81913,1.81913 -10.99027,4.66265 -22.07081,6.84307 -11.8986,2.3414 -33.16823,2.62744 -42.19924,0.56752 z m 37.23009,-26.00645 c 8.32969,-2.51197 18.49245,-9.01479 24.27705,-15.53409 9.05584,-10.20603 13.30994,-19.55971 14.09896,-31 0.75176,-10.90004 1.04685,-11.90352 3.32517,-11.30772 1.41482,0.36998 3.36026,-1.01918 7.19031,-5.13432 9.31576,-10.0092 14.88662,-20.0082 16.92399,-30.37646 1.53565,-7.81495 0.71816,-22.80393 -1.47501,-27.04505 -0.86381,-1.67042 -1.57056,-4.09444 -1.57056,-5.38671 0,-3.68091 -14.50844,-22.74974 -17.30904,-22.74974 -0.49673,0 -2.54291,-1.24986 -4.54706,-2.77746 -6.21748,-4.73909 -14.96811,-7.87211 -27.66261,-9.90414 -4.40867,-0.7057 -19.02089,2.31855 -25.10169,5.19523 -5.81355,2.75025 -8.37588,3.12798 -8.38684,1.23637 -0.0119,-2.04825 -10.13375,-4.74926 -20.1394,-5.37418 -7.71641,-0.48194 -10.7312,-0.20929 -17.22621,1.55785 -9.65775,2.62766 -12.21522,3.923 -20.31874,10.29131 -7.06121,5.54918 -13.90561,14.45291 -17.99121,23.40433 -3.54554,7.76818 -4.42631,24.3268 -1.82822,34.37069 3.29783,12.74893 11.60935,24.99708 22.41396,33.02998 2.98344,2.2181 3.2628,2.79182 2.2662,4.65398 -2.33183,4.35707 1.5801,18.05317 8.38447,29.35499 8.12223,13.49073 22.98503,23.01693 39.44639,25.28288 5.65901,0.77898 20.11565,-0.24538 25.23009,-1.78774 z m -26.73009,-17.46024 c -1.65,-0.45956 -4.575,-1.53142 -6.5,-2.38192 -3.98783,-1.76189 -15,-11.2824 -15,-12.96817 0,-0.61394 -1.07621,-2.71545 -2.39158,-4.67001 -1.31537,-1.95456 -2.6737,-5.17698 -3.01852,-7.16092 l -0.62694,-3.60717 10.26852,0.0762 c 11.96006,0.0888 22.71485,-2.44064 23.52337,-5.53243 0.60327,-2.30688 0.19598,-2.36224 8.08102,1.09852 8.36232,3.67025 22.24142,5.80335 28.09397,4.31782 4.39245,-1.11492 5.66029,-0.37991 4.2494,2.46354 -0.48868,0.98488 -2.33792,4.82818 -4.10941,8.54068 -1.7715,3.7125 -3.63691,6.75 -4.14537,6.75 -0.50845,0 -0.92447,0.5625 -0.92449,1.25 -4e-5,1.85493 -6.29393,6.53707 -12.78729,9.5127 -6.13558,2.81168 -18.69758,3.98649 -24.71268,2.31115 z m -22.75,-49.73468 c -1.5125,-0.25961 -2.75,-0.68874 -2.75,-0.95363 0,-1.05519 6.78006,-10.97715 8.43124,-12.3383 1.54681,-1.27511 1.86801,-1.26389 2.62666,0.0917 0.47539,0.84948 2.46882,3.92874 4.42984,6.84281 1.96103,2.91407 3.42605,5.43776 3.2556,5.6082 -0.61547,0.61548 -13.30827,1.21004 -15.99334,0.74918 z m 54.25,-0.0244 c -5.31935,-0.87844 -5.66947,-1.33179 -2.81254,-3.6418 1.47811,-1.19514 3.79746,-4.57587 5.15413,-7.51274 2.23155,-4.8308 2.53544,-5.11674 3.18823,-3 0.39686,1.28687 2.01501,4.27482 3.59588,6.63989 1.58086,2.36507 2.8743,5.17757 2.8743,6.25 0,1.67861 -0.66081,1.93092 -4.75,1.81369 -2.6125,-0.0749 -5.875,-0.32197 -7.25,-0.54904 z m 30.56014,-6.81477 c -2.23016,-8.23785 -16.64642,-26.44834 -19.93785,-25.1853 -1.86231,0.71463 -3.13535,-4.50181 -2.33582,-9.5713 0.59332,-3.76208 -4.53647,-20.87607 -6.82734,-22.77732 -0.80252,-0.66603 -1.45913,-1.69375 -1.45913,-2.28381 0,-0.59006 -1.15159,-2.27484 -2.5591,-3.74396 l -2.5591,-2.67112 4.3091,-1.08311 c 7.47401,-1.87863 20.56981,1.20869 27.8091,6.55597 4.11089,3.0365 11,9.86648 11,10.90559 0,0.3976 0.95123,2.68788 2.11383,5.08951 2.49291,5.14965 3.81718,20.04559 2.09467,23.56174 -0.59359,1.21171 -1.95375,4.2744 -3.02257,6.80598 -1.06882,2.53158 -3.0104,5.82249 -4.31462,7.31312 -1.30422,1.49063 -2.62504,4.36934 -2.93516,6.39713 l -0.56385,3.68688 z m -107.23926,-6.25 c -1.42099,-1.5125 -3.91497,-5.675 -5.54218,-9.25 -2.7653,-6.0754 -2.92981,-7.12057 -2.51833,-16 0.3549,-7.65865 0.96583,-10.6097 3.15191,-15.22525 3.24736,-6.85627 11.8418,-14.95774 18.52463,-17.46208 2.5097,-0.9405 4.83642,-2.10581 5.17048,-2.5896 0.53008,-0.76766 8.71676,-1.16515 17.12553,-0.83151 l 2.73291,0.10844 -2.08439,3.75 c -1.14642,2.0625 -2.65631,4.425 -3.35532,5.25 -3.57668,4.22137 -7.4853,17.88087 -7.51134,26.25 -0.008,2.6125 -0.41308,4.75 -0.8999,4.75 -3.68601,0 -20.11488,18.40257 -20.11488,22.53139 0,2.25461 -1.82715,1.75424 -4.67912,-1.28139 z m 51.77336,-1.92144 c -1.70183,-2.5693 -3.09424,-4.99181 -3.09424,-5.38337 0,-0.39156 -1.0125,-0.9894 -2.25,-1.32853 -4.26929,-1.16999 0.35514,-2.58525 8.5,-2.60135 7.2232,-0.0143 7.75,0.12814 7.75,2.09499 0,2.1863 -5.77337,11.8897 -7.07418,11.8897 -0.40554,0 -2.12975,-2.10215 -3.83158,-4.67144 z m -16.09424,-4.42218 c 0,-0.49851 0.4132,-0.90638 0.91821,-0.90638 0.50502,0 1.70384,-0.30147 2.66405,-0.66994 1.09783,-0.42128 1.50514,-0.28049 1.09737,0.37929 -0.8543,1.38229 -4.67963,2.36079 -4.67963,1.19703 z m 47,-1.78835 c 0,-0.55 0.45,-1.27811 1,-1.61803 0.55,-0.33992 1,-0.16803 1,0.38197 0,0.55 -0.45,1.27811 -1,1.61803 -0.55,0.33992 -1,0.16803 -1,-0.38197 z m -18.47901,-21.08406 c -0.33716,-0.54554 -4.71558,-0.84053 -10.05901,-0.6777 -5.20409,0.15859 -9.46198,0.19988 -9.46198,0.0918 0,-0.10812 0.6863,-2.16565 1.52511,-4.5723 2.25322,-6.46479 4.1176,-9.97661 7.31838,-13.78524 l 2.86536,-3.4095 5.14557,10.31792 c 2.83007,5.67487 5.14558,10.92164 5.14558,11.65951 0,1.55198 -1.60195,1.79466 -2.47901,0.37555 z m 210.97901,135.90905 c -15.29067,-3.27251 -14.6167,-3.05887 -24.7672,-7.85068 -4.46579,-2.10819 -9.2188,-5.55093 -13.97602,-10.12323 -3.96485,-3.81073 -7.78211,-7.14859 -8.4828,-7.41747 -0.70069,-0.26888 -1.27398,-1.34789 -1.27398,-2.39781 0,-1.04992 -0.72246,-2.50853 -1.60547,-3.24136 -1.75939,-1.46017 -6.39453,-11.30852 -6.39453,-13.58656 0,-0.78388 -0.73881,-2.85393 -1.64179,-4.60011 -3.93679,-7.6129 -4.58159,-17.78431 -5.24432,-82.7258 -0.58806,-57.62498 -0.77855,-62.75963 -2.44217,-65.828583 -2.2983,-4.239781 -8.47876,-7.120299 -15.33993,-7.149455 -6.0236,-0.0256 -8.33179,-0.72717 -8.33179,-2.532437 0,-1.846769 4.94913,-2.029973 46.0186,-1.703491 29.49078,0.234437 35.9814,0.530817 35.9814,1.643011 0,1.797228 -2.23723,2.570955 -7.4339,2.570955 -5.58743,0 -10.40132,3.279683 -12.47623,8.5 -1.39207,3.50235 -1.58987,11.58921 -1.58987,65 0,59.04369 0.0707,61.33674 2.20445,71.5 2.17483,10.35898 5.8241,20.75342 9.08419,25.87506 2.31914,3.64342 13.43207,14.10717 14.99274,14.11693 0.70477,0.004 1.54041,0.68301 1.85699,1.50801 0.31659,0.825 1.44539,1.5 2.50846,1.5 1.06306,0 3.82742,1.00158 6.14301,2.22573 3.7273,1.97047 5.70112,2.22601 17.21016,2.22811 15.43889,0.003 21.52795,-1.51651 32,-7.98454 14.08103,-8.69711 21.14596,-22.26906 23.40891,-44.9693 1.52028,-15.25027 1.46712,-118.33778 -0.0658,-127.62003 l -1.1569,-7.005292 -4.80986,-2.437339 c -3.52541,-1.786456 -6.4294,-2.437339 -10.87449,-2.437339 -4.54362,0 -6.21314,-0.387016 -6.65678,-1.543128 -0.32569,-0.848721 -0.32823,-1.807052 -0.006,-2.129626 0.88949,-0.889492 69.04313,-0.334077 69.95296,0.570078 1.49569,1.486358 -1.79844,2.866275 -7.83782,3.28328 -7.88183,0.544221 -10.59983,2.624456 -12.76257,9.767876 -1.46972,4.85444 -1.73154,12.89707 -2.08514,64.05152 -0.32813,47.4712 -0.6883,59.72542 -1.91043,65 -0.82834,3.575 -2.00013,8.93036 -2.60396,11.90081 -0.60384,2.97044 -1.48802,5.89544 -1.96485,6.5 -0.47683,0.60455 -1.4374,2.86818 -2.1346,5.03028 -1.70195,5.27792 -8.89148,16.17124 -13.81624,20.93385 -11.06691,10.70256 -28.26655,19.74751 -41.17677,21.65407 -7.23368,1.06825 -35.4005,1.0154 -40.5,-0.076 z m 107.19696,-2.76634 c -4.63856,-0.8838 0.22759,-4.17668 6.1722,-4.17668 11.06828,0 12.44339,-3.08354 17.61513,-39.5 0.85919,-6.05 2.93362,-19.55 4.60982,-30 1.67621,-10.45 3.67242,-23.275 4.43603,-28.5 0.76361,-5.225 1.85671,-11.92392 2.42912,-14.88649 0.57241,-2.96257 1.04074,-7.32077 1.04074,-9.6849 0,-2.36413 0.40115,-5.35351 0.89144,-6.64307 0.49029,-1.28957 1.65945,-8.63136 2.59813,-16.3151 0.93868,-7.68374 2.10964,-14.87044 2.60214,-15.97044 0.81802,-1.82703 2.06256,-10.73775 3.6004,-25.77841 0.32495,-3.178131 0.97716,-6.017188 1.44936,-6.30902 0.47219,-0.291832 0.85853,-2.326393 0.85853,-4.521247 0,-4.411761 2.36956,-9.892399 4.27568,-9.88939 2.41211,0.0038 15.6814,23.042757 15.71162,27.279447 0.007,0.97977 0.6877,2.04041 1.5127,2.35699 0.825,0.31659 1.5,1.15194 1.5,1.85634 0,1.46517 4.5768,11.3022 9.3077,20.00529 0.89693,1.65 2.15299,4.125 2.79125,5.5 4.24521,9.14537 13.21883,27.75481 13.98403,29 0.50699,0.825 1.3952,2.625 1.97381,4 0.57861,1.375 3.77115,8.125 7.09453,15 8.4902,17.56346 17.39772,36.02613 22.19322,46 5.59966,11.6464 5.45957,11.50341 8.28399,8.45581 1.30431,-1.40737 2.37147,-2.98749 2.37147,-3.51137 0,-0.52389 2.88926,-6.9132 6.42059,-14.19848 3.53132,-7.28528 8.08151,-16.84596 10.11152,-21.24596 2.03002,-4.4 7.5087,-15.875 12.17485,-25.5 4.66615,-9.625 9.52958,-19.75 10.80763,-22.5 1.27805,-2.75 4.3851,-9.33359 6.90457,-14.6302 2.51946,-5.29661 4.58084,-10.13411 4.58084,-10.75 0,-0.61589 0.37845,-1.1198 0.84101,-1.1198 0.46256,0 2.13643,-3.2625 3.71973,-7.25 1.58329,-3.9875 3.15377,-7.475 3.48994,-7.75 0.33617,-0.275 2.1212,-3.875 3.96674,-8 1.84554,-4.125 3.94662,-8.210433 4.66905,-9.078741 0.72244,-0.868307 1.31353,-2.138176 1.31353,-2.82193 0,-1.902 4.90591,-9.849246 6.4445,-10.439658 0.74861,-0.287267 2.14166,0.04845 3.09567,0.746047 1.88979,1.381845 2.8626,7.143093 11.32917,67.094282 1.70882,12.1 3.56228,23.91896 4.1188,26.26435 0.55652,2.34539 1.01186,6.08363 1.01186,8.30718 0,2.22356 0.42567,5.9296 0.94594,8.23565 1.01441,4.49633 3.67794,21.30831 7.0807,44.69282 5.60241,38.50106 6.61628,42.60129 11.62054,46.99508 3.11992,2.73932 4.83467,3.25588 18.77834,5.65681 2.70903,0.46646 5.10903,1.41061 5.33333,2.09811 0.31921,0.97841 -4.77056,1.22699 -23.42552,1.14411 -32.14586,-0.14282 -41.71077,-0.856 -42.14632,-3.14252 -0.18318,-0.96163 0.37481,-2.45627 1.23997,-3.32143 1.96502,-1.96501 1.99778,-6.86148 0.12923,-19.31083 -0.79408,-5.29063 -2.15233,-15.24433 -3.01834,-22.11933 -0.86601,-6.875 -2.21755,-17 -3.00342,-22.5 -0.78587,-5.5 -1.9374,-14.05 -2.55894,-19 -0.62154,-4.95 -1.99529,-14.26872 -3.05279,-20.70827 -1.0575,-6.43955 -1.92272,-14.1349 -1.92272,-17.10078 0,-6.1872 -1.69768,-11.95073 -3.36367,-11.41949 -1.4247,0.4543 -9.46804,15.59939 -9.56481,18.00992 -0.0393,0.97977 -0.74652,2.04041 -1.57152,2.35699 -0.825,0.31659 -1.5,1.19751 -1.5,1.95762 0,1.93861 -13.56885,30.01951 -14.90446,30.84496 -0.60254,0.3724 -1.09554,1.38874 -1.09554,2.25854 0,1.70557 -0.53224,2.90106 -10.37356,23.30051 -3.58205,7.425 -9.95305,20.7 -14.1578,29.5 -13.21579,27.659 -14.31342,29.5 -17.58844,29.5 -0.99541,0 -2.34303,-1.0125 -2.99472,-2.25 -0.65169,-1.2375 -1.45502,-2.475 -1.78518,-2.75 -0.98245,-0.8183 -42.1003,-82.26545 -42.1003,-83.39319 0,-0.42814 -2.52931,-5.92269 -11.60184,-25.2033 -1.31899,-2.80307 -2.39816,-5.51111 -2.39816,-6.01787 0,-0.50675 -1.125,-2.57696 -2.5,-4.60045 -1.375,-2.0235 -2.5,-4.50295 -2.5,-5.5099 0,-1.53099 -3.12518,-5.27529 -4.40302,-5.27529 -0.6874,0 -1.46543,4.32692 -3.05683,17 -2.5603,20.38893 -5.53274,43.04472 -6.56,50 -1.89217,12.81144 -4.13102,30.42667 -5.78291,45.5 -0.58244,5.31468 -0.51094,9.49507 0.21302,12.45405 l 1.08974,4.45404 6.5,1.25924 c 3.575,0.69258 8.1875,1.52115 10.25,1.84127 3.83584,0.59535 5.41897,3.41906 2,3.56725 -6.3318,0.27444 -59.17998,0.36244 -60.55304,0.10083 z"
       id="path3726"
       inkscape:connector-curvature="0" />
  </g>
</svg>
